<?xml version="1.0" encoding="utf-8"?>
<svg viewBox="0 0 500 500" xmlns="http://www.w3.org/2000/svg" xmlns:bx="https://boxy-svg.com">
  <defs>
    <linearGradient id="color-0" bx:pinned="true">
      <title>Ship Fill</title>
      <stop style="stop-color: rgb(0, 117, 250);"/>
    </linearGradient>
    <linearGradient id="color-1" bx:pinned="true">
      <title>Ship Edge</title>
      <stop style="stop-color: rgb(143, 204, 254);"/>
    </linearGradient>
  </defs>
  <path style="fill: url(#color-0); stroke: url(#color-1); stroke-width: 6px; stroke-linejoin: bevel;" d="M 67.046 246.265 C 71.222 289.354 108.698 303.733 108.698 303.733 L 107.9 322.586 L 52.926 315.237 C 52.921 315.217 67.735 345.558 67.881 360.567 C 68.027 375.576 55.464 400 55.464 400 L 151.891 393.93 C 151.891 393.93 202.076 376.475 202.374 360.265 C 202.672 344.055 151.535 324.471 151.535 324.471 L 152.367 304.677 L 216.012 306.15 C 216.012 306.15 252.731 336.757 251.031 346.924 C 249.331 357.091 244.499 384.983 244.499 384.983 C 301.141 383.264 311.013 381.386 383.616 349.868 C 456.219 318.35 467.831 247.781 467.831 246.265 C 467.831 244.749 456.219 174.18 383.616 142.662 C 311.013 111.144 301.141 109.266 244.499 107.547 C 244.499 107.547 249.331 135.439 251.031 145.606 C 252.731 155.773 216.012 186.38 216.012 186.38 L 152.367 187.853 L 151.535 168.059 C 151.535 168.059 202.672 148.475 202.374 132.265 C 202.076 116.055 151.891 98.6 151.891 98.6 L 55.464 92.53 C 55.464 92.53 68.027 116.954 67.881 131.963 C 67.735 146.972 52.921 177.313 52.926 177.293 L 107.9 169.944 L 108.698 188.797 C 108.698 188.797 71.222 203.176 67.046 246.265 Z"/>
</svg>